# xmcd CD database file
#
# Track frame offsets:
#	150
#	20305
#	43750
#	67285
#	84359
#	87408
#	106749
#	131339
#	155549
#	173456
#	192792
#	217436
#	241114
#	289051
#
# Disc length: 4110 seconds
#
# Revision: 0
# Processed by: cddbd v1.5.2PL0 Copyright (c) Steve Scherf et al.
# Submitted via: CDex 1.70beta2
#
DISCID=bc100c0e
DTITLE=Davy Sicard - Ker Maron
DYEAR=2006
DGENRE=Blues
TTITLE0=Granpèr té sï mon zépol
TTITLE1=Au nom de mes pères
TTITLE2=Un peu de moi
TTITLE3=Juste un écho
TTITLE4=Pluie y veut tomber
TTITLE5=Ker maron
TTITLE6=Maloya kabosé
TTITLE7=Konmsi
TTITLE8=Ayé
TTITLE9=Sa lé anou
TTITLE10=Tango souk inn de
TTITLE11=I di (Fé inn)
TTITLE12=Kouraj
TTITLE13=Quelque part
EXTD=YEAR: 2006
EXTT0=
EXTT1=
EXTT2=
EXTT3=
EXTT4=
EXTT5=
EXTT6=
EXTT7=
EXTT8=
EXTT9=
EXTT10=
EXTT11=
EXTT12=
EXTT13=
PLAYORDER=
